<svg xmlns="http://www.w3.org/2000/svg" xmlns:xlink="http://www.w3.org/1999/xlink" width="500" zoomAndPan="magnify" viewBox="0 0 375 374.999991" height="500" preserveAspectRatio="xMidYMid meet" version="1.0"><defs><clipPath id="16234f924e"><path d="M 2.628906 24.949219 L 372.804688 24.949219 L 372.804688 350.300781 L 2.628906 350.300781 Z M 2.628906 24.949219 " clip-rule="nonzero"/></clipPath><clipPath id="2f6d5491bb"><path d="M 372.804688 63.992188 L 372.804688 311.011719 C 372.804688 321.367188 368.691406 331.292969 361.363281 338.621094 C 354.042969 345.941406 344.117188 350.050781 333.761719 350.050781 L 41.242188 350.050781 C 30.886719 350.050781 20.960938 345.941406 13.632812 338.621094 C 6.3125 331.292969 2.199219 321.367188 2.199219 311.011719 L 2.199219 63.992188 C 2.199219 53.636719 6.3125 43.703125 13.632812 36.382812 C 20.960938 29.0625 30.886719 24.949219 41.242188 24.949219 L 333.761719 24.949219 C 344.117188 24.949219 354.042969 29.0625 361.363281 36.382812 C 368.691406 43.703125 372.804688 53.636719 372.804688 63.992188 Z M 372.804688 63.992188 " clip-rule="nonzero"/></clipPath></defs><g clip-path="url(#16234f924e)"><g clip-path="url(#2f6d5491bb)"><path stroke-linecap="butt" transform="matrix(0, 1.446, -1.446, 0, 372.80163, 24.950257)" fill="none" stroke-linejoin="miter" d="M 26.999951 -0.00211416 L 197.829496 -0.00211416 C 204.990954 -0.00211416 211.855257 2.842479 216.923116 7.910338 C 221.985573 12.972795 224.827464 19.837097 224.827464 26.998555 L 224.827464 229.294213 C 224.827464 236.455671 221.985573 243.322674 216.923116 248.387832 C 211.855257 253.450289 204.990954 256.294882 197.829496 256.294882 L 26.999951 256.294882 C 19.838493 256.294882 12.968788 253.450289 7.906331 248.387832 C 2.843875 243.322674 -0.000718182 236.455671 -0.000718182 229.294213 L -0.000718182 26.998555 C -0.000718182 19.837097 2.843875 12.972795 7.906331 7.910338 C 12.968788 2.842479 19.838493 -0.00211416 26.999951 -0.00211416 Z M 26.999951 -0.00211416 " stroke="#000000" stroke-width="20" stroke-opacity="1" stroke-miterlimit="4"/></g></g><path stroke-linecap="butt" transform="matrix(0, 1.446, -1.446, 0, 131.219293, 32.926521)" fill="none" stroke-linejoin="miter" d="M -0.000511831 5.503163 L 211.33951 5.503163 " stroke="#000000" stroke-width="11" stroke-opacity="1" stroke-miterlimit="4"/><path stroke-linecap="butt" transform="matrix(0, 1.446, -1.446, 0, 259.689304, 101.505961)" fill="none" stroke-linejoin="miter" d="M -0.00142067 5.498633 L 163.907107 5.498633 " stroke="#000000" stroke-width="11" stroke-opacity="1" stroke-miterlimit="4"/><path stroke-linecap="butt" transform="matrix(1.446, 0.00000000000000048, -0.00000000000000048, 1.446, 243.886248, 101.383909)" fill="none" stroke-linejoin="miter" d="M -0.0023762 5.50203 L 85.446171 5.50203 " stroke="#000000" stroke-width="11" stroke-opacity="1" stroke-miterlimit="4"/><path stroke-linecap="butt" transform="matrix(1.446, 0, 0, 1.446, 251.736317, 179.552038)" fill="none" stroke-linejoin="miter" d="M 0.00135856 5.499218 L 80.017355 5.499218 " stroke="#000000" stroke-width="11" stroke-opacity="1" stroke-miterlimit="4"/><path stroke-linecap="butt" transform="matrix(1.446, 0, 0, 1.446, 251.736317, 253.921887)" fill="none" stroke-linejoin="miter" d="M 0.00135856 5.500079 L 80.017355 5.500079 " stroke="#000000" stroke-width="11" stroke-opacity="1" stroke-miterlimit="4"/><path stroke-linecap="butt" transform="matrix(1.446, -0.000000000000000538, 0.000000000000000538, 1.446, 11.741547, 179.552038)" fill="none" stroke-linejoin="miter" d="M 0.000443106 5.499218 L 77.128624 5.499218 " stroke="#000000" stroke-width="11" stroke-opacity="1" stroke-miterlimit="4"/></svg>