<svg xmlns="http://www.w3.org/2000/svg" xmlns:xlink="http://www.w3.org/1999/xlink" width="500" zoomAndPan="magnify" viewBox="0 0 375 374.999991" height="500" preserveAspectRatio="xMidYMid meet" version="1.0"><defs><clipPath id="8e461e5036"><path d="M 4.660156 26.753906 L 370.996094 26.753906 L 370.996094 348.726562 L 4.660156 348.726562 Z M 4.660156 26.753906 " clip-rule="nonzero"/></clipPath><clipPath id="0ba71eef9a"><path d="M 370.996094 65.390625 L 370.996094 309.84375 C 370.996094 320.09375 366.929688 329.914062 359.675781 337.167969 C 352.429688 344.410156 342.609375 348.480469 332.359375 348.480469 L 42.875 348.480469 C 32.625 348.480469 22.800781 344.410156 15.550781 337.167969 C 8.304688 329.914062 4.238281 320.09375 4.238281 309.84375 L 4.238281 65.390625 C 4.238281 55.140625 8.304688 45.3125 15.550781 38.066406 C 22.800781 30.820312 32.625 26.753906 42.875 26.753906 L 332.359375 26.753906 C 342.609375 26.753906 352.429688 30.820312 359.675781 38.066406 C 366.929688 45.3125 370.996094 55.140625 370.996094 65.390625 Z M 370.996094 65.390625 " clip-rule="nonzero"/></clipPath></defs><g clip-path="url(#8e461e5036)"><g clip-path="url(#0ba71eef9a)"><path stroke-linecap="butt" transform="matrix(0, 1.431, -1.431, 0, 370.994951, 26.752015)" fill="none" stroke-linejoin="miter" d="M 27.001129 -0.000798331 L 197.827933 -0.000798331 C 204.990758 -0.000798331 211.853311 2.840856 216.922428 7.909973 C 221.983357 12.973631 224.82774 19.836185 224.82774 26.999009 L 224.82774 229.294196 C 224.82774 236.45702 221.983357 243.322304 216.922428 248.388691 C 211.853311 253.452349 204.990758 256.294003 197.827933 256.294003 L 27.001129 256.294003 C 19.838305 256.294003 12.970292 253.452349 7.906634 248.388691 C 2.842976 243.322304 0.00132171 236.45702 0.00132171 229.294196 L 0.00132171 26.999009 C 0.00132171 19.836185 2.842976 12.973631 7.906634 7.909973 C 12.970292 2.840856 19.838305 -0.000798331 27.001129 -0.000798331 Z M 27.001129 -0.000798331 " stroke="#ffffff" stroke-width="20" stroke-opacity="1" stroke-miterlimit="4"/></g></g><path stroke-linecap="butt" transform="matrix(0, 1.431, -1.431, 0, 131.918667, 34.645588)" fill="none" stroke-linejoin="miter" d="M -0.000738781 5.500903 L 211.338043 5.500903 " stroke="#ffffff" stroke-width="11" stroke-opacity="1" stroke-miterlimit="4"/><path stroke-linecap="butt" transform="matrix(0, 1.431, -1.431, 0, 259.056023, 102.513612)" fill="none" stroke-linejoin="miter" d="M -0.00132335 5.498619 L 163.90559 5.498619 " stroke="#ffffff" stroke-width="11" stroke-opacity="1" stroke-miterlimit="4"/><path stroke-linecap="butt" transform="matrix(1.431, 0.000000000000000475, -0.000000000000000475, 1.431, 243.416854, 102.392763)" fill="none" stroke-linejoin="miter" d="M -0.00195081 5.501651 L 85.446931 5.501651 " stroke="#ffffff" stroke-width="11" stroke-opacity="1" stroke-miterlimit="4"/><path stroke-linecap="butt" transform="matrix(1.431, 0, 0, 1.431, 251.185505, 179.750014)" fill="none" stroke-linejoin="miter" d="M 0.00139427 5.500406 L 80.018104 5.500406 " stroke="#ffffff" stroke-width="11" stroke-opacity="1" stroke-miterlimit="4"/><path stroke-linecap="butt" transform="matrix(1.431, 0, 0, 1.431, 251.185505, 253.348342)" fill="none" stroke-linejoin="miter" d="M 0.00139427 5.499936 L 80.018104 5.499936 " stroke="#ffffff" stroke-width="11" stroke-opacity="1" stroke-miterlimit="4"/><path stroke-linecap="butt" transform="matrix(1.431, -0.000000000000000532, 0.000000000000000532, 1.431, 13.680326, 179.750014)" fill="none" stroke-linejoin="miter" d="M -0.000446137 5.500406 L 77.130934 5.500406 " stroke="#ffffff" stroke-width="11" stroke-opacity="1" stroke-miterlimit="4"/></svg>